<svg xmlns="http://www.w3.org/2000/svg" version="1.1" xmlns:xlink="http://www.w3.org/1999/xlink" xmlns:svgjs="http://svgjs.dev/svgjs" width="128" height="128" viewBox="0 0 128 128"><g transform="matrix(0.8046875,0,0,0.8046875,12.760752631578946,18.28936193847656)"><svg viewBox="0 0 95 84" data-background-color="#ffffff" preserveAspectRatio="xMidYMid meet" height="113" width="128" xmlns="http://www.w3.org/2000/svg" xmlns:xlink="http://www.w3.org/1999/xlink"><g id="tight-bounds" transform="matrix(1,0,0,1,-0.24049999999999727,0.2270625000000024)"><svg viewBox="0 0 95.481 83.545875" height="83.545875" width="95.481"><g><svg viewBox="0 0 95.481 83.545875" height="83.545875" width="95.481"><g><svg viewBox="0 0 95.481 83.545875" height="83.545875" width="95.481"><g id="textblocktransform"><svg viewBox="0 0 95.481 83.545875" height="83.545875" width="95.481" id="textblock"><g><svg viewBox="0 0 95.481 83.545875" height="83.545875" width="95.481"><g><svg viewBox="0 0 95.481 83.545875" height="83.545875" width="95.481"><g><svg xmlns="http://www.w3.org/2000/svg" xmlns:xlink="http://www.w3.org/1999/xlink" version="1.1" x="0" y="0" viewBox="0 0 100 87.5" style="enable-background:new 0 0 100 87.5;" xml:space="preserve" width="95.481" height="83.545875" class="icon-icon-0" data-fill-palette-color="accent" id="icon-0"><path d="M50 12.5C50 12.5 37.5 0 0 0v75c37.891 0 50 12.5 50 12.5S62.109 75 100 75V0C62.5 0 50 12.5 50 12.5zM12.5 12.5c15.888 1.33 25.635 5.005 31.25 7.983v50.342c-5.615-2.966-15.362-6.641-31.25-7.983V12.5zM87.5 62.842c-15.894 1.343-25.641 5.018-31.25 7.983V20.483c5.609-2.979 15.356-6.653 31.25-7.983V62.842z" fill="#f36527" data-fill-palette-color="accent"></path></svg></g></svg></g></svg></g></svg></g></svg></g><g></g></svg></g><defs></defs></svg><rect width="95.481" height="83.545875" fill="none" stroke="none" visibility="hidden"></rect></g></svg></g></svg>